<mxfile host="app.diagrams.net" modified="2023-06-09T05:01:11.920Z" agent="5.0 (Macintosh; Intel Mac OS X 10_15_7) AppleWebKit/537.36 (KHTML, like Gecko) Chrome/113.0.0.0 Safari/537.36" etag="6GhkkiYcE8RLZ3Cuwb5c" version="21.0.7" type="github">
  <diagram name="Page-1" id="K8SywgeqvOcLsFLHz-o8">
    <mxGraphModel dx="954" dy="616" grid="1" gridSize="10" guides="1" tooltips="1" connect="1" arrows="1" fold="1" page="1" pageScale="1" pageWidth="850" pageHeight="1100" math="0" shadow="0">
      <root>
        <mxCell id="0" />
        <mxCell id="1" parent="0" />
        <mxCell id="J9de2S_sD1K7lB5yTrQU-1" value="" style="rounded=0;whiteSpace=wrap;html=1;" vertex="1" parent="1">
          <mxGeometry x="40" y="40" width="450" height="460" as="geometry" />
        </mxCell>
        <mxCell id="J9de2S_sD1K7lB5yTrQU-2" value="FRONT END" style="whiteSpace=wrap;html=1;" vertex="1" parent="1">
          <mxGeometry x="180" width="120" height="30" as="geometry" />
        </mxCell>
        <mxCell id="J9de2S_sD1K7lB5yTrQU-3" value="999" style="rounded=0;whiteSpace=wrap;html=1;" vertex="1" parent="1">
          <mxGeometry x="40" y="40" width="90" height="40" as="geometry" />
        </mxCell>
        <mxCell id="J9de2S_sD1K7lB5yTrQU-4" value="Search | CONTACT | THANKS" style="rounded=0;whiteSpace=wrap;html=1;" vertex="1" parent="1">
          <mxGeometry x="240" y="40" width="250" height="40" as="geometry" />
        </mxCell>
        <mxCell id="J9de2S_sD1K7lB5yTrQU-5" value="ERAS:&lt;br&gt;JW3&lt;br&gt;etc." style="rounded=0;whiteSpace=wrap;html=1;" vertex="1" parent="1">
          <mxGeometry x="40" y="110" width="70" height="220" as="geometry" />
        </mxCell>
        <mxCell id="J9de2S_sD1K7lB5yTrQU-6" value="SUBMIT" style="rounded=0;whiteSpace=wrap;html=1;" vertex="1" parent="1">
          <mxGeometry x="350" y="180" width="120" height="60" as="geometry" />
        </mxCell>
        <mxCell id="J9de2S_sD1K7lB5yTrQU-7" value="" style="rounded=0;whiteSpace=wrap;html=1;" vertex="1" parent="1">
          <mxGeometry x="140" y="180" width="220" height="60" as="geometry" />
        </mxCell>
      </root>
    </mxGraphModel>
  </diagram>
</mxfile>
